<svg xmlns="http://www.w3.org/2000/svg" viewBox="0 0 1920 900" preserveAspectRatio="xMidYMid slice">
  <defs>
    <filter id="grain" x="0" y="0" width="100%" height="100%">
      <feTurbulence type="fractalNoise" baseFrequency="0.55" numOctaves="3" stitchTiles="stitch" result="noise"/>
      <feColorMatrix type="saturate" values="0" in="noise" result="mono"/>
      <feBlend in="SourceGraphic" in2="mono" mode="multiply"/>
    </filter>
    <filter id="glow">
      <feGaussianBlur stdDeviation="6" result="blur"/>
      <feMerge><feMergeNode in="blur"/><feMergeNode in="SourceGraphic"/></feMerge>
    </filter>
    <filter id="glow-lg">
      <feGaussianBlur stdDeviation="14" result="blur"/>
      <feMerge><feMergeNode in="blur"/><feMergeNode in="SourceGraphic"/></feMerge>
    </filter>
    <linearGradient id="sky" x1="0" y1="0" x2="0" y2="900" gradientUnits="userSpaceOnUse">
      <stop offset="0%" stop-color="#2a2420"/>
      <stop offset="30%" stop-color="#332a22"/>
      <stop offset="55%" stop-color="#3e3228"/>
      <stop offset="100%" stop-color="#342c24"/>
    </linearGradient>
    <radialGradient id="moonglow" cx="0.82" cy="0.12" r="0.18">
      <stop offset="0%" stop-color="#daa060" stop-opacity="0.18"/>
      <stop offset="40%" stop-color="#c49060" stop-opacity="0.08"/>
      <stop offset="100%" stop-color="#c49060" stop-opacity="0"/>
    </radialGradient>
    <radialGradient id="horizonglow" cx="0.65" cy="0.68" rx="0.4" ry="0.25">
      <stop offset="0%" stop-color="#ef7a21" stop-opacity="0.06"/>
      <stop offset="100%" stop-color="#ef7a21" stop-opacity="0"/>
    </radialGradient>
    <radialGradient id="textzone" cx="0.28" cy="0.45" rx="0.28" ry="0.5">
      <stop offset="0%" stop-color="#2a2420" stop-opacity="0.5"/>
      <stop offset="100%" stop-color="#2a2420" stop-opacity="0"/>
    </radialGradient>
    <linearGradient id="road" x1="0" y1="0" x2="0" y2="1">
      <stop offset="0%" stop-color="#3a3228"/>
      <stop offset="100%" stop-color="#2e2620"/>
    </linearGradient>
  </defs>

  <!-- ===== SKY ===== -->
  <rect width="1920" height="900" fill="url(#sky)"/>
  <rect width="1920" height="900" fill="url(#moonglow)"/>
  <rect width="1920" height="900" fill="url(#horizonglow)"/>

  <!-- ===== MOON ===== -->
  <circle cx="1580" cy="108" r="22" fill="#daa060" opacity="0.12"/>
  <circle cx="1580" cy="108" r="12" fill="#e0b070" opacity="0.08"/>

  <!-- ===== CLOUDS (subtle wisps) ===== -->
  <g opacity="0.06" fill="#8a7a68">
    <ellipse cx="300" cy="120" rx="140" ry="18"/>
    <ellipse cx="380" cy="115" rx="80" ry="12"/>
    <ellipse cx="800" cy="90" rx="120" ry="14"/>
    <ellipse cx="870" cy="85" rx="60" ry="10"/>
    <ellipse cx="1300" cy="140" rx="100" ry="15"/>
    <ellipse cx="1370" cy="135" rx="70" ry="11"/>
    <ellipse cx="1700" cy="75" rx="90" ry="12"/>
  </g>

  <!-- ===== CRANE 1 — LEFT SKY (prominent, visible against open sky) ===== -->
  <g opacity="0.28">
    <rect x="320" y="160" width="6" height="440" fill="#5a4e40"/>
    <!-- Jib (horizontal arm) -->
    <rect x="200" y="162" width="220" height="5" fill="#5a4e40"/>
    <!-- Counter-jib -->
    <rect x="330" y="162" width="100" height="5" fill="#5a4e40"/>
    <!-- Cables -->
    <line x1="326" y1="162" x2="200" y2="200" stroke="#5a4e40" stroke-width="1.8"/>
    <line x1="326" y1="162" x2="430" y2="185" stroke="#5a4e40" stroke-width="1.8"/>
    <!-- Hook cable -->
    <line x1="240" y1="167" x2="240" y2="280" stroke="#5a4e40" stroke-width="1.2"/>
    <rect x="234" y="278" width="12" height="8" fill="#5a4e40" rx="1"/>
    <!-- Cross bracing on mast -->
    <line x1="318" y1="200" x2="328" y2="280" stroke="#5a4e40" stroke-width="1"/>
    <line x1="328" y1="200" x2="318" y2="280" stroke="#5a4e40" stroke-width="1"/>
    <line x1="318" y1="280" x2="328" y2="360" stroke="#5a4e40" stroke-width="1"/>
    <line x1="328" y1="280" x2="318" y2="360" stroke="#5a4e40" stroke-width="1"/>
    <line x1="318" y1="360" x2="328" y2="440" stroke="#5a4e40" stroke-width="1"/>
    <line x1="328" y1="360" x2="318" y2="440" stroke="#5a4e40" stroke-width="1"/>
    <!-- Counterweight -->
    <rect x="400" y="168" width="25" height="16" fill="#4a3e32"/>
    <!-- Aviation light -->
    <circle cx="323" cy="158" r="3" fill="#ef7a21" opacity="0.5"/>
  </g>

  <!-- ===== CRANE 2 — CENTER-RIGHT SKY ===== -->
  <g opacity="0.22">
    <rect x="1100" y="120" width="7" height="480" fill="#4a3e32"/>
    <rect x="1000" y="122" width="200" height="5" fill="#4a3e32"/>
    <rect x="1110" y="122" width="90" height="5" fill="#4a3e32"/>
    <line x1="1107" y1="122" x2="1000" y2="160" stroke="#4a3e32" stroke-width="1.8"/>
    <line x1="1107" y1="122" x2="1200" y2="148" stroke="#4a3e32" stroke-width="1.8"/>
    <line x1="1050" y1="127" x2="1050" y2="250" stroke="#4a3e32" stroke-width="1.2"/>
    <rect x="1044" y="248" width="12" height="8" fill="#4a3e32" rx="1"/>
    <line x1="1098" y1="160" x2="1108" y2="260" stroke="#4a3e32" stroke-width="1"/>
    <line x1="1108" y1="160" x2="1098" y2="260" stroke="#4a3e32" stroke-width="1"/>
    <line x1="1098" y1="260" x2="1108" y2="360" stroke="#4a3e32" stroke-width="1"/>
    <line x1="1108" y1="260" x2="1098" y2="360" stroke="#4a3e32" stroke-width="1"/>
    <line x1="1098" y1="360" x2="1108" y2="460" stroke="#4a3e32" stroke-width="1"/>
    <line x1="1108" y1="360" x2="1098" y2="460" stroke="#4a3e32" stroke-width="1"/>
    <rect x="1170" y="128" width="22" height="14" fill="#3e3428"/>
    <circle cx="1103" cy="118" r="3" fill="#ef7a21" opacity="0.45"/>
  </g>

  <!-- ===== CRANE 3 — FAR RIGHT ===== -->
  <g opacity="0.18">
    <rect x="1680" y="180" width="5" height="420" fill="#4a3e32"/>
    <rect x="1610" y="182" width="150" height="4" fill="#4a3e32"/>
    <rect x="1688" y="182" width="70" height="4" fill="#4a3e32"/>
    <line x1="1685" y1="182" x2="1610" y2="215" stroke="#4a3e32" stroke-width="1.5"/>
    <line x1="1685" y1="182" x2="1758" y2="205" stroke="#4a3e32" stroke-width="1.5"/>
    <line x1="1640" y1="186" x2="1640" y2="290" stroke="#4a3e32" stroke-width="1"/>
    <rect x="1635" y="288" width="10" height="7" fill="#4a3e32" rx="1"/>
    <circle cx="1682" cy="178" r="2.5" fill="#ef7a21" opacity="0.4"/>
  </g>

  <!-- ===== DISTANT HILLS ===== -->
  <path d="M0,530 Q200,500 400,520 Q600,490 800,510 Q1000,480 1200,505 Q1400,475 1600,498 Q1760,485 1920,500 L1920,600 L0,600 Z" fill="#3e3428" opacity="0.2"/>

  <!-- ===== FAR BACKGROUND BUILDINGS (right-shifted) ===== -->
  <g opacity="0.12">
    <rect x="600" y="480" width="30" height="80" fill="#5a4e40"/>
    <rect x="680" y="470" width="35" height="90" fill="#5a4e40"/>
    <rect x="750" y="460" width="40" height="100" fill="#5a4e40"/>
    <rect x="830" y="475" width="25" height="85" fill="#5a4e40"/>
    <rect x="950" y="455" width="45" height="105" fill="#5a4e40"/>
    <rect x="1300" y="450" width="40" height="110" fill="#5a4e40"/>
    <rect x="1400" y="465" width="35" height="95" fill="#5a4e40"/>
    <rect x="1500" y="455" width="30" height="105" fill="#5a4e40"/>
    <rect x="1750" y="445" width="45" height="115" fill="#5a4e40"/>
    <rect x="1850" y="460" width="70" height="100" fill="#5a4e40"/>
  </g>

  <!-- ===== MID-GROUND (right-biased) ===== -->
  <g opacity="0.2">
    <rect x="700" y="430" width="55" height="170" fill="#4a3e30" rx="2"/>
    <rect x="770" y="450" width="40" height="150" fill="#4a3e30" rx="2"/>
    <rect x="850" y="420" width="60" height="180" fill="#4a3e30" rx="2"/>
    <rect x="1350" y="410" width="50" height="190" fill="#4a3e30" rx="2"/>
    <rect x="1420" y="430" width="45" height="170" fill="#4a3e30" rx="2"/>
    <rect x="1550" y="400" width="55" height="200" fill="#4a3e30" rx="2"/>
    <rect x="1750" y="420" width="60" height="180" fill="#4a3e30" rx="2"/>
    <rect x="1830" y="400" width="90" height="200" fill="#4a3e30" rx="2"/>
  </g>

  <!-- ===== FOREGROUND — SMALL LEFT PRESENCE (don't block text) ===== -->
  <!-- Distant small building far left edge -->
  <rect x="-15" y="430" width="55" height="170" fill="#3e3228" opacity="0.35" rx="2"/>
  <g opacity="0.35">
    <rect x="-2" y="450" width="10" height="13" rx="1" fill="#ef7a21" opacity="0.3"/>
    <rect x="14" y="450" width="10" height="13" rx="1" fill="#daa060" opacity="0.25"/>
    <rect x="30" y="450" width="10" height="13" rx="1" fill="#ef7a21" opacity="0.2"/>
    <rect x="-2" y="475" width="10" height="13" rx="1" fill="#daa060" opacity="0.2"/>
    <rect x="14" y="475" width="10" height="13" rx="1" fill="#ef7a21" opacity="0.3"/>
    <rect x="30" y="475" width="10" height="13" rx="1" fill="#daa060" opacity="0.25"/>
  </g>

  <!-- ===== FOREGROUND — CITY RIGHT HALF ===== -->

  <!-- Church with dome -->
  <g>
    <rect x="920" y="370" width="95" height="230" fill="#3e3228" rx="2"/>
    <rect x="916" y="366" width="103" height="6" fill="#4a4038" rx="1"/>
    <path d="M940,370 Q967,325 995,370" fill="#4a3e32"/>
    <line x1="967" y1="318" x2="967" y2="335" stroke="#6a5e50" stroke-width="2.5"/>
    <line x1="960" y1="326" x2="974" y2="326" stroke="#6a5e50" stroke-width="2.5"/>
    <rect x="934" y="395" width="14" height="24" rx="1" fill="#ef7a21" opacity="0.25"/>
    <path d="M934,395 Q941,386 948,395" fill="#ef7a21" opacity="0.15"/>
    <rect x="960" y="395" width="14" height="24" rx="1" fill="#daa060" opacity="0.3"/>
    <path d="M960,395 Q967,386 974,395" fill="#daa060" opacity="0.2"/>
    <rect x="986" y="395" width="14" height="24" rx="1" fill="#ef7a21" opacity="0.2"/>
    <rect x="934" y="435" width="14" height="24" rx="1" fill="#daa060" opacity="0.2"/>
    <rect x="960" y="435" width="14" height="24" rx="1" fill="#ef7a21" opacity="0.3"/>
    <rect x="986" y="435" width="14" height="24" rx="1" fill="#daa060" opacity="0.25"/>
    <rect x="934" y="475" width="14" height="24" rx="1" fill="#ef7a21" opacity="0.25"/>
    <rect x="960" y="475" width="14" height="24" rx="1" fill="#daa060" opacity="0.2"/>
    <rect x="986" y="475" width="14" height="24" rx="1" fill="#ef7a21" opacity="0.3"/>
    <rect x="952" y="555" width="30" height="45" rx="2" fill="#2a2218"/>
    <path d="M952,555 Q967,542 982,555" fill="#3a3028"/>
  </g>

  <!-- Tall glass tower -->
  <g>
    <rect x="1040" y="240" width="90" height="360" fill="#3a3028" rx="3"/>
    <rect x="1036" y="235" width="98" height="7" fill="#4a4038" rx="1"/>
    <g opacity="0.7">
      <rect x="1052" y="258" width="16" height="12" rx="1" fill="#c4a878" opacity="0.2"/>
      <rect x="1074" y="258" width="16" height="12" rx="1" fill="#ef7a21" opacity="0.15"/>
      <rect x="1096" y="258" width="16" height="12" rx="1" fill="#c4a878" opacity="0.25"/>
      <rect x="1052" y="280" width="16" height="12" rx="1" fill="#ef7a21" opacity="0.2"/>
      <rect x="1074" y="280" width="16" height="12" rx="1" fill="#c4a878" opacity="0.3"/>
      <rect x="1096" y="280" width="16" height="12" rx="1" fill="#daa060" opacity="0.15"/>
      <rect x="1052" y="302" width="16" height="12" rx="1" fill="#c4a878" opacity="0.25"/>
      <rect x="1074" y="302" width="16" height="12" rx="1" fill="#daa060" opacity="0.2"/>
      <rect x="1096" y="302" width="16" height="12" rx="1" fill="#ef7a21" opacity="0.2"/>
      <rect x="1052" y="324" width="16" height="12" rx="1" fill="#daa060" opacity="0.2"/>
      <rect x="1074" y="324" width="16" height="12" rx="1" fill="#ef7a21" opacity="0.15"/>
      <rect x="1096" y="324" width="16" height="12" rx="1" fill="#c4a878" opacity="0.25"/>
      <rect x="1052" y="346" width="16" height="12" rx="1" fill="#ef7a21" opacity="0.25"/>
      <rect x="1074" y="346" width="16" height="12" rx="1" fill="#c4a878" opacity="0.2"/>
      <rect x="1096" y="346" width="16" height="12" rx="1" fill="#daa060" opacity="0.2"/>
      <rect x="1052" y="368" width="16" height="12" rx="1" fill="#c4a878" opacity="0.3"/>
      <rect x="1074" y="368" width="16" height="12" rx="1" fill="#daa060" opacity="0.15"/>
      <rect x="1096" y="368" width="16" height="12" rx="1" fill="#ef7a21" opacity="0.2"/>
      <rect x="1052" y="390" width="16" height="12" rx="1" fill="#daa060" opacity="0.2"/>
      <rect x="1074" y="390" width="16" height="12" rx="1" fill="#ef7a21" opacity="0.25"/>
      <rect x="1096" y="390" width="16" height="12" rx="1" fill="#c4a878" opacity="0.2"/>
      <rect x="1052" y="412" width="16" height="12" rx="1" fill="#ef7a21" opacity="0.15"/>
      <rect x="1074" y="412" width="16" height="12" rx="1" fill="#c4a878" opacity="0.25"/>
      <rect x="1096" y="412" width="16" height="12" rx="1" fill="#daa060" opacity="0.2"/>
      <rect x="1052" y="434" width="16" height="12" rx="1" fill="#c4a878" opacity="0.2"/>
      <rect x="1074" y="434" width="16" height="12" rx="1" fill="#daa060" opacity="0.2"/>
      <rect x="1096" y="434" width="16" height="12" rx="1" fill="#ef7a21" opacity="0.25"/>
      <rect x="1052" y="456" width="16" height="12" rx="1" fill="#daa060" opacity="0.25"/>
      <rect x="1074" y="456" width="16" height="12" rx="1" fill="#ef7a21" opacity="0.2"/>
      <rect x="1096" y="456" width="16" height="12" rx="1" fill="#c4a878" opacity="0.15"/>
      <rect x="1052" y="478" width="16" height="12" rx="1" fill="#ef7a21" opacity="0.2"/>
      <rect x="1074" y="478" width="16" height="12" rx="1" fill="#c4a878" opacity="0.3"/>
      <rect x="1096" y="478" width="16" height="12" rx="1" fill="#daa060" opacity="0.2"/>
      <rect x="1052" y="500" width="16" height="12" rx="1" fill="#c4a878" opacity="0.15"/>
      <rect x="1074" y="500" width="16" height="12" rx="1" fill="#daa060" opacity="0.25"/>
      <rect x="1096" y="500" width="16" height="12" rx="1" fill="#ef7a21" opacity="0.2"/>
      <rect x="1052" y="522" width="16" height="12" rx="1" fill="#daa060" opacity="0.2"/>
      <rect x="1074" y="522" width="16" height="12" rx="1" fill="#ef7a21" opacity="0.15"/>
      <rect x="1096" y="522" width="16" height="12" rx="1" fill="#c4a878" opacity="0.25"/>
      <rect x="1052" y="544" width="16" height="12" rx="1" fill="#ef7a21" opacity="0.25"/>
      <rect x="1074" y="544" width="16" height="12" rx="1" fill="#c4a878" opacity="0.2"/>
      <rect x="1096" y="544" width="16" height="12" rx="1" fill="#daa060" opacity="0.15"/>
    </g>
  </g>

  <!-- Industrial factory -->
  <g>
    <rect x="1160" y="430" width="180" height="170" fill="#3e3228" rx="2"/>
    <polygon points="1160,430 1160,395 1210,430" fill="#4a3e32"/>
    <polygon points="1210,430 1210,390 1260,430" fill="#4a3e32"/>
    <polygon points="1260,430 1260,395 1310,430" fill="#4a3e32"/>
    <polygon points="1310,430 1310,390 1340,430" fill="#4a3e32"/>
    <rect x="1320" y="330" width="22" height="104" fill="#3a3028" rx="2"/>
    <ellipse cx="1331" cy="330" rx="11" ry="4" fill="#4a3e32"/>
    <g opacity="0.1" fill="none" stroke="#8a7a68" stroke-width="2.5">
      <path d="M1331,326 C1338,306 1325,296 1334,276"/>
      <path d="M1327,323 C1318,302 1332,290 1324,270"/>
    </g>
    <rect x="1178" y="460" width="35" height="22" rx="1" fill="#ef7a21" opacity="0.25"/>
    <rect x="1223" y="460" width="35" height="22" rx="1" fill="#daa060" opacity="0.2"/>
    <rect x="1268" y="460" width="35" height="22" rx="1" fill="#ef7a21" opacity="0.3"/>
    <rect x="1208" y="530" width="40" height="70" rx="2" fill="#2a2218"/>
    <rect x="1258" y="530" width="40" height="70" rx="2" fill="#2a2218"/>
  </g>

  <!-- Residential tower cluster right -->
  <g>
    <rect x="1380" y="300" width="75" height="300" fill="#3a3028" rx="2"/>
    <rect x="1376" y="296" width="83" height="6" fill="#4a4038" rx="1"/>
    <g>
      <rect x="1392" y="316" width="12" height="16" rx="1" fill="#ef7a21" opacity="0.25"/>
      <rect x="1412" y="316" width="12" height="16" rx="1" fill="#daa060" opacity="0.3"/>
      <rect x="1432" y="316" width="12" height="16" rx="1" fill="#ef7a21" opacity="0.2"/>
      <rect x="1392" y="344" width="12" height="16" rx="1" fill="#daa060" opacity="0.2"/>
      <rect x="1412" y="344" width="12" height="16" rx="1" fill="#ef7a21" opacity="0.3"/>
      <rect x="1432" y="344" width="12" height="16" rx="1" fill="#daa060" opacity="0.25"/>
      <rect x="1392" y="372" width="12" height="16" rx="1" fill="#ef7a21" opacity="0.3"/>
      <rect x="1412" y="372" width="12" height="16" rx="1" fill="#daa060" opacity="0.2"/>
      <rect x="1432" y="372" width="12" height="16" rx="1" fill="#ef7a21" opacity="0.25"/>
      <rect x="1392" y="400" width="12" height="16" rx="1" fill="#daa060" opacity="0.25"/>
      <rect x="1412" y="400" width="12" height="16" rx="1" fill="#ef7a21" opacity="0.2"/>
      <rect x="1432" y="400" width="12" height="16" rx="1" fill="#daa060" opacity="0.3"/>
      <rect x="1392" y="428" width="12" height="16" rx="1" fill="#ef7a21" opacity="0.2"/>
      <rect x="1412" y="428" width="12" height="16" rx="1" fill="#daa060" opacity="0.3"/>
      <rect x="1432" y="428" width="12" height="16" rx="1" fill="#ef7a21" opacity="0.25"/>
      <rect x="1392" y="456" width="12" height="16" rx="1" fill="#daa060" opacity="0.3"/>
      <rect x="1412" y="456" width="12" height="16" rx="1" fill="#ef7a21" opacity="0.25"/>
      <rect x="1432" y="456" width="12" height="16" rx="1" fill="#daa060" opacity="0.2"/>
      <rect x="1392" y="484" width="12" height="16" rx="1" fill="#ef7a21" opacity="0.25"/>
      <rect x="1412" y="484" width="12" height="16" rx="1" fill="#daa060" opacity="0.2"/>
      <rect x="1432" y="484" width="12" height="16" rx="1" fill="#ef7a21" opacity="0.3"/>
      <rect x="1392" y="512" width="12" height="16" rx="1" fill="#daa060" opacity="0.2"/>
      <rect x="1412" y="512" width="12" height="16" rx="1" fill="#ef7a21" opacity="0.3"/>
      <rect x="1432" y="512" width="12" height="16" rx="1" fill="#daa060" opacity="0.25"/>
    </g>
  </g>

  <!-- Second tower -->
  <rect x="1470" y="360" width="65" height="240" fill="#3e3228" rx="2"/>
  <g>
    <rect x="1482" y="378" width="10" height="14" rx="1" fill="#daa060" opacity="0.25"/>
    <rect x="1500" y="378" width="10" height="14" rx="1" fill="#ef7a21" opacity="0.3"/>
    <rect x="1518" y="378" width="10" height="14" rx="1" fill="#daa060" opacity="0.2"/>
    <rect x="1482" y="404" width="10" height="14" rx="1" fill="#ef7a21" opacity="0.2"/>
    <rect x="1500" y="404" width="10" height="14" rx="1" fill="#daa060" opacity="0.3"/>
    <rect x="1518" y="404" width="10" height="14" rx="1" fill="#ef7a21" opacity="0.25"/>
    <rect x="1482" y="430" width="10" height="14" rx="1" fill="#daa060" opacity="0.3"/>
    <rect x="1500" y="430" width="10" height="14" rx="1" fill="#ef7a21" opacity="0.2"/>
    <rect x="1518" y="430" width="10" height="14" rx="1" fill="#daa060" opacity="0.25"/>
    <rect x="1482" y="456" width="10" height="14" rx="1" fill="#ef7a21" opacity="0.25"/>
    <rect x="1500" y="456" width="10" height="14" rx="1" fill="#daa060" opacity="0.2"/>
    <rect x="1518" y="456" width="10" height="14" rx="1" fill="#ef7a21" opacity="0.3"/>
    <rect x="1482" y="482" width="10" height="14" rx="1" fill="#daa060" opacity="0.2"/>
    <rect x="1500" y="482" width="10" height="14" rx="1" fill="#ef7a21" opacity="0.25"/>
    <rect x="1518" y="482" width="10" height="14" rx="1" fill="#daa060" opacity="0.3"/>
  </g>

  <!-- Houses far right -->
  <rect x="1570" y="470" width="75" height="80" fill="#3e3228" rx="2"/>
  <polygon points="1565,470 1607,425 1650,470" fill="#4a3e32"/>
  <rect x="1585" y="490" width="14" height="18" rx="1" fill="#ef7a21" opacity="0.3"/>
  <rect x="1615" y="490" width="14" height="18" rx="1" fill="#daa060" opacity="0.25"/>
  <rect x="1596" y="520" width="20" height="30" rx="1" fill="#2a2218"/>

  <!-- Last buildings right edge -->
  <rect x="1670" y="340" width="80" height="260" fill="#3a3028" rx="2"/>
  <rect x="1760" y="380" width="70" height="220" fill="#3e3228" rx="2"/>
  <rect x="1840" y="350" width="80" height="250" fill="#3a3028" rx="2"/>
  <g>
    <rect x="1682" y="360" width="12" height="15" rx="1" fill="#ef7a21" opacity="0.25"/>
    <rect x="1702" y="360" width="12" height="15" rx="1" fill="#daa060" opacity="0.3"/>
    <rect x="1722" y="360" width="12" height="15" rx="1" fill="#ef7a21" opacity="0.2"/>
    <rect x="1682" y="388" width="12" height="15" rx="1" fill="#daa060" opacity="0.2"/>
    <rect x="1702" y="388" width="12" height="15" rx="1" fill="#ef7a21" opacity="0.3"/>
    <rect x="1722" y="388" width="12" height="15" rx="1" fill="#daa060" opacity="0.25"/>
    <rect x="1682" y="416" width="12" height="15" rx="1" fill="#ef7a21" opacity="0.3"/>
    <rect x="1702" y="416" width="12" height="15" rx="1" fill="#daa060" opacity="0.2"/>
    <rect x="1722" y="416" width="12" height="15" rx="1" fill="#ef7a21" opacity="0.25"/>
    <rect x="1682" y="444" width="12" height="15" rx="1" fill="#daa060" opacity="0.25"/>
    <rect x="1702" y="444" width="12" height="15" rx="1" fill="#ef7a21" opacity="0.2"/>
    <rect x="1722" y="444" width="12" height="15" rx="1" fill="#daa060" opacity="0.3"/>
    <rect x="1682" y="472" width="12" height="15" rx="1" fill="#ef7a21" opacity="0.2"/>
    <rect x="1702" y="472" width="12" height="15" rx="1" fill="#daa060" opacity="0.3"/>
    <rect x="1722" y="472" width="12" height="15" rx="1" fill="#ef7a21" opacity="0.25"/>
    <rect x="1682" y="500" width="12" height="15" rx="1" fill="#daa060" opacity="0.3"/>
    <rect x="1702" y="500" width="12" height="15" rx="1" fill="#ef7a21" opacity="0.25"/>
    <rect x="1722" y="500" width="12" height="15" rx="1" fill="#daa060" opacity="0.2"/>
    <rect x="1772" y="400" width="10" height="13" rx="1" fill="#daa060" opacity="0.25"/>
    <rect x="1792" y="400" width="10" height="13" rx="1" fill="#ef7a21" opacity="0.2"/>
    <rect x="1812" y="400" width="10" height="13" rx="1" fill="#daa060" opacity="0.3"/>
    <rect x="1772" y="425" width="10" height="13" rx="1" fill="#ef7a21" opacity="0.3"/>
    <rect x="1792" y="425" width="10" height="13" rx="1" fill="#daa060" opacity="0.2"/>
    <rect x="1812" y="425" width="10" height="13" rx="1" fill="#ef7a21" opacity="0.25"/>
    <rect x="1772" y="450" width="10" height="13" rx="1" fill="#daa060" opacity="0.2"/>
    <rect x="1792" y="450" width="10" height="13" rx="1" fill="#ef7a21" opacity="0.3"/>
    <rect x="1812" y="450" width="10" height="13" rx="1" fill="#daa060" opacity="0.25"/>
    <rect x="1772" y="475" width="10" height="13" rx="1" fill="#ef7a21" opacity="0.25"/>
    <rect x="1792" y="475" width="10" height="13" rx="1" fill="#daa060" opacity="0.2"/>
    <rect x="1812" y="475" width="10" height="13" rx="1" fill="#ef7a21" opacity="0.3"/>
    <rect x="1855" y="372" width="12" height="15" rx="1" fill="#ef7a21" opacity="0.2"/>
    <rect x="1875" y="372" width="12" height="15" rx="1" fill="#daa060" opacity="0.25"/>
    <rect x="1895" y="372" width="12" height="15" rx="1" fill="#ef7a21" opacity="0.3"/>
    <rect x="1855" y="400" width="12" height="15" rx="1" fill="#daa060" opacity="0.3"/>
    <rect x="1875" y="400" width="12" height="15" rx="1" fill="#ef7a21" opacity="0.2"/>
    <rect x="1895" y="400" width="12" height="15" rx="1" fill="#daa060" opacity="0.25"/>
    <rect x="1855" y="428" width="12" height="15" rx="1" fill="#ef7a21" opacity="0.25"/>
    <rect x="1875" y="428" width="12" height="15" rx="1" fill="#daa060" opacity="0.3"/>
    <rect x="1895" y="428" width="12" height="15" rx="1" fill="#ef7a21" opacity="0.2"/>
    <rect x="1855" y="456" width="12" height="15" rx="1" fill="#daa060" opacity="0.2"/>
    <rect x="1875" y="456" width="12" height="15" rx="1" fill="#ef7a21" opacity="0.25"/>
    <rect x="1895" y="456" width="12" height="15" rx="1" fill="#daa060" opacity="0.3"/>
    <rect x="1855" y="484" width="12" height="15" rx="1" fill="#ef7a21" opacity="0.3"/>
    <rect x="1875" y="484" width="12" height="15" rx="1" fill="#daa060" opacity="0.2"/>
    <rect x="1895" y="484" width="12" height="15" rx="1" fill="#ef7a21" opacity="0.25"/>
  </g>

  <!-- ===== STREET LAMPS ===== -->
  <g filter="url(#glow)">
    <circle cx="580" cy="560" r="8" fill="#ef7a21" opacity="0.15"/>
    <circle cx="800" cy="555" r="8" fill="#ef7a21" opacity="0.12"/>
    <circle cx="1150" cy="558" r="8" fill="#ef7a21" opacity="0.15"/>
    <circle cx="1500" cy="555" r="8" fill="#ef7a21" opacity="0.12"/>
    <circle cx="1780" cy="558" r="8" fill="#ef7a21" opacity="0.15"/>
  </g>
  <g opacity="0.3">
    <rect x="578" y="568" width="4" height="32" fill="#5a4e40" rx="1"/>
    <rect x="798" y="563" width="4" height="37" fill="#5a4e40" rx="1"/>
    <rect x="1148" y="566" width="4" height="34" fill="#5a4e40" rx="1"/>
    <rect x="1498" y="563" width="4" height="37" fill="#5a4e40" rx="1"/>
    <rect x="1778" y="566" width="4" height="34" fill="#5a4e40" rx="1"/>
  </g>

  <!-- ===== GROUND PLANE WITH ROADS ===== -->
  <rect x="0" y="600" width="1920" height="300" fill="#2e2620" opacity="0.7"/>

  <!-- Main horizontal road -->
  <rect x="0" y="598" width="1920" height="30" fill="url(#road)" opacity="0.5"/>
  <!-- Road center line -->
  <g stroke="#daa060" stroke-width="1.5" stroke-dasharray="16,12" opacity="0.12">
    <line x1="0" y1="613" x2="1920" y2="613"/>
  </g>
  <!-- Road edge lines -->
  <line x1="0" y1="600" x2="1920" y2="600" stroke="#ef7a21" stroke-width="1" opacity="0.1"/>
  <line x1="0" y1="626" x2="1920" y2="626" stroke="#ef7a21" stroke-width="0.5" opacity="0.08"/>

  <!-- Side road going into city (perspective) -->
  <g opacity="0.25">
    <polygon points="1100,600 1140,600 1200,500 1180,500" fill="#3a3228"/>
    <line x1="1150" y1="600" x2="1190" y2="500" stroke="#daa060" stroke-width="1" stroke-dasharray="8,8" opacity="0.3"/>
  </g>

  <!-- Crosswalk -->
  <g opacity="0.08">
    <rect x="700" y="600" width="60" height="4" rx="1" fill="#daa060"/>
    <rect x="700" y="608" width="60" height="4" rx="1" fill="#daa060"/>
    <rect x="700" y="616" width="60" height="4" rx="1" fill="#daa060"/>
    <rect x="700" y="624" width="60" height="4" rx="1" fill="#daa060"/>
  </g>

  <!-- Second crosswalk -->
  <g opacity="0.06">
    <rect x="1400" y="600" width="50" height="4" rx="1" fill="#daa060"/>
    <rect x="1400" y="608" width="50" height="4" rx="1" fill="#daa060"/>
    <rect x="1400" y="616" width="50" height="4" rx="1" fill="#daa060"/>
    <rect x="1400" y="624" width="50" height="4" rx="1" fill="#daa060"/>
  </g>

  <!-- Sidewalk texture below road -->
  <g opacity="0.05">
    <rect x="0" y="630" width="1920" height="2" fill="#8a7a68"/>
    <rect x="0" y="640" width="1920" height="1" fill="#8a7a68"/>
  </g>

  <!-- ===== WATER REFLECTIONS (far bottom) ===== -->
  <g opacity="0.03" fill="none" stroke="#ef7a21" stroke-width="1.5">
    <path d="M0,680 Q100,675 200,682 Q300,688 400,680 Q500,674 600,683 Q700,690 800,680 Q900,673 1000,684 Q1100,691 1200,680 Q1300,672 1400,685 Q1500,692 1600,680 Q1700,671 1800,686 Q1860,690 1920,682"/>
    <path d="M0,710 Q150,704 300,712 Q450,720 600,710 Q750,702 900,714 Q1050,722 1200,710 Q1350,700 1500,715 Q1650,723 1800,710 Q1870,704 1920,712"/>
  </g>

  <!-- ===== TEXT AREA DARKENING ===== -->
  <rect width="1920" height="900" fill="url(#textzone)"/>

  <!-- ===== GRAIN TEXTURE ===== -->
  <rect width="1920" height="900" filter="url(#grain)" opacity="0.08"/>
</svg>