<svg xmlns="http://www.w3.org/2000/svg"
     viewBox="0 0 718 520"
     width="718"
     height="520"
     shape-rendering="geometricPrecision">
  <defs>
    <clipPath id="grey-cutouts-d" clipPathUnits="userSpaceOnUse">
      <path clip-rule="evenodd" d="M0 0H718V520H0Z M190 219V209A17 17 0 0 1 192 196L260 152L302 127L344 152L417 203H615V219Z M359 315H590C594 315 597 318 597 322C597 326 594 329 590 329H359Z"/>
    </clipPath>
    <linearGradient id="grey-fill-d" x1="56" y1="56" x2="691" y2="430" gradientUnits="userSpaceOnUse">
      <stop offset="0%" stop-color="#c8c8c8"/>
      <stop offset="18%" stop-color="#a8a8a8"/>
      <stop offset="54%" stop-color="#8a8a8a"/>
      <stop offset="100%" stop-color="#6a6a6a"/>
    </linearGradient>
    <linearGradient id="grey-top-d" x1="0" y1="56" x2="0" y2="430" gradientUnits="userSpaceOnUse">
      <stop offset="0%" stop-color="#ffffff" stop-opacity="0.28"/>
      <stop offset="20%" stop-color="#ffffff" stop-opacity="0.12"/>
      <stop offset="42%" stop-color="#ffffff" stop-opacity="0"/>
      <stop offset="100%" stop-color="#000000" stop-opacity="0.18"/>
    </linearGradient>
  </defs>
  <!-- GREY SYSTEM -->
  <g>
    <g clip-path="url(#grey-cutouts-d)">
      <g fill="url(#grey-fill-d)">
        <path d="M245 56
                 V165
                 L188 199
                 C184 202 184 215 189 217
                 H245
                 V316
                 H141
                 C118 316 97 309 79 292
                 C64 278 56 257 56 236
                 V201
                 C56 180 64 161 79 146
                 C86 139 95 133 105 128
                 Z"/>
        <path d="M359 56
                 V168
                 L416 202
                 H610
                 Z"/>
        <rect x="56" y="328" width="189" height="102"/>
        <path d="M359 217
                 H593
                 C648 217 691 265 691 323
                 C691 382 648 430 593 430
                 H359
                 Z"/>
      </g>
      <g fill="url(#grey-top-d)">
        <path d="M245 56
                 V165
                 L188 199
                 C184 202 184 215 189 217
                 H245
                 V316
                 H141
                 C118 316 97 309 79 292
                 C64 278 56 257 56 236
                 V201
                 C56 180 64 161 79 146
                 C86 139 95 133 105 128
                 Z"/>
        <path d="M359 56
                 V168
                 L416 202
                 H610
                 Z"/>
        <rect x="56" y="328" width="189" height="102"/>
        <path d="M359 217
                 H593
                 C648 217 691 265 691 323
                 C691 382 648 430 593 430
                 H359
                 Z"/>
      </g>
    </g>
    <!-- outer outlines — lighter for dark bg -->
    <g fill="none"
       stroke="#555555"
       stroke-width="4.35"
       stroke-linejoin="miter"
       stroke-miterlimit="2">
      <path d="M245 56
               V165
               L188 199
               C184 202 184 215 189 217
               H245
               V316
               H141
               C118 316 97 309 79 292
               C64 278 56 257 56 236
               V201
               C56 180 64 161 79 146
               C86 139 95 133 105 128
               Z"/>
      <path d="M359 56
               V164
               L416 202
               H610
               Z"/>
      <rect x="56" y="328" width="189" height="102"/>
      <path d="M359 217
               H593
               C648 217 691 265 691 323
               C691 382 648 430 593 430
               H359"/>
      <path d="M359 215 V317"/>
      <path d="M359 327 V432"/>
    </g>
    <!-- slot outline -->
    <g fill="none"
       stroke="#555555"
       stroke-width="4.35"
       stroke-linejoin="round"
       stroke-linecap="butt">
      <path d="M359 315
               H590
               C594 315 597 318 597 322
               C597 326 594 329 590 329
               H359"/>
    </g>
  </g>
  <!-- ORANGE SYSTEM -->
  <g>
    <path d="M255 500
             V58
             A47 19 0 0 1 349 58
             V500
             Z"
          fill="#f59542"
          stroke="#a05500"
          stroke-width="4.35"
          stroke-linejoin="round"/>
  </g>
</svg>